<svg xmlns="http://www.w3.org/2000/svg" id="viewer" style="" width="35.55999999999999mm" height="25.146000000000004mm" viewBox="0.95 0.95 1.3999999999999997 0.9900000000000002" xmlns:xlink="http://www.w3.org/1999/xlink">
      <g class="transform-group" style="" transform="scale(1, -1) translate(0, -2.89)">
            <!--?lit$7061360188$-->

          <g class="shapes"><!--?lit$7061360188$--><!---->
    <g id="interior">
      <!--?lit$7061360188$--><!---->
    <path fill-rule="nonzero" d="M 0.9999999999999999,1.8900000000000001L 2.3,1.8900000000000001L 2.3,1L 0.9999999999999999,1L 0.9999999999999999,1.8900000000000001" fill="#002d00" fill-opacity="1"/>
  <!---->
    </g>
  <!----><!---->
    <g id="B.Cu">
      <!--?lit$7061360188$-->
    </g>
  <!----><!---->
    <g id="F.Cu">
      <!--?lit$7061360188$--><!---->
    <path fill-rule="nonzero" d="M 1.6133000000000002,1.184L 1.5493000000000001,1.184L 1.5493000000000001,1.1575682382133994L 1.529032258064516,1.1575682382133994L 1.529032258064516,1.2249999999999999L 1.5292000000000001,1.2249999999999999L 1.5292000000000001,1.2802L 1.529032258064516,1.2802L 1.529032258064516,1.3436724565756821L 1.7498,1.3436724565756821L 1.7498,1.3434L 1.8050000000000002,1.3434L 1.8050000000000002,1.3436724565756821L 1.91985111662531,1.3436724565756821L 1.9228287841191065,1.3444168734491313L 1.925806451612903,1.3466501240694788L 1.9272952853598013,1.3496277915632753L 1.9272952853598013,1.3793L 1.9540000000000002,1.3793L 1.9540000000000002,1.4432999999999998L 1.8860000000000001,1.4432999999999998L 1.8860000000000001,1.3793L 1.9124069478908186,1.3793L 1.9124069478908186,1.358560794044665L 1.8050000000000002,1.358560794044665L 1.8050000000000002,1.3592L 1.7498,1.3592L 1.7498,1.358560794044665L 1.6228287841191065,1.358560794044665L 1.6228287841191065,1.5797999999999999L 1.6236000000000002,1.5797999999999999L 1.6236000000000002,1.635L 1.6228287841191065,1.635L 1.6228287841191065,1.772456575682382L 1.6280000000000001,1.772456575682382L 1.6280000000000001,1.7459999999999998L 1.6920000000000002,1.7459999999999998L 1.6920000000000002,1.772456575682382L 1.766,1.772456575682382L 1.766,1.766L 1.8010000000000002,1.766L 1.8010000000000002,1.794L 1.766,1.794L 1.766,1.7873449131513646L 1.6920000000000002,1.7873449131513646L 1.6920000000000002,1.8139999999999998L 1.6674937965260543,1.8139999999999998L 1.6674937965260543,1.8498759305210917L 1.6667493796526052,1.8528535980148881L 1.6645161290322579,1.8558312655086846L 1.6615384615384614,1.857320099255583L 1.0801488833746897,1.857320099255583L 1.0771712158808933,1.8565756823821338L 1.0741935483870966,1.8543424317617865L 1.0727047146401985,1.8513647642679898L 1.0727047146401985,1.3503722084367245L 1.0734491315136476,1.347394540942928L 1.075682382133995,1.3444168734491313L 1.0786600496277914,1.3429280397022332L 1.18,1.3429280397022332L 1.18,1.325L 1.28,1.325L 1.28,1.375L 1.18,1.375L 1.18,1.3578163771712157L 1.087593052109181,1.3578163771712157L 1.087593052109181,1.8424317617866004L 1.6526054590570718,1.8424317617866004L 1.6526054590570718,1.8139999999999998L 1.6280000000000001,1.8139999999999998L 1.6280000000000001,1.7873449131513646L 1.6153846153846152,1.7873449131513646L 1.6124069478908187,1.7866004962779154L 1.609429280397022,1.784367245657568L 1.607940446650124,1.7813895781637714L 1.607940446650124,1.635L 1.6078000000000001,1.635L 1.6078000000000001,1.5797999999999999L 1.607940446650124,1.5797999999999999L 1.607940446650124,1.358560794044665L 1.5215880893300247,1.358560794044665L 1.5186104218362282,1.3578163771712157L 1.5156327543424315,1.3555831265508684L 1.5141439205955334,1.3526054590570717L 1.5141439205955334,1.2802L 1.5134,1.2802L 1.5134,1.2249999999999999L 1.5141439205955334,1.2249999999999999L 1.5141439205955334,1.150124069478908L 1.5148883374689825,1.1471464019851116L 1.5171215880893298,1.144168734491315L 1.5200992555831263,1.1426799007444168L 1.5493000000000001,1.1426799007444168L 1.5493000000000001,1.1159999999999999L 1.6133000000000002,1.1159999999999999L 1.6133000000000002,1.184" fill="#ff8c00" fill-opacity="0.8"/>
  <!----><!---->
    <path fill-rule="nonzero" d="M 2.20272952853598,1.0332506203473943L 2.2057071960297763,1.0354838709677419L 2.2071960297766746,1.0384615384615383L 2.2071960297766746,1.085L 2.23,1.085L 2.2300000000000004,1.165L 2.17,1.165L 2.17,1.085L 2.192307692307692,1.085L 2.192307692307692,1.047394540942928L 1.2372208436724563,1.047394540942928L 1.2372208436724563,1.125L 1.2817,1.125L 1.2835,1.1252L 1.2852,1.1256L 1.286,1.1257L 1.2878,1.1262999999999999L 1.2893,1.1267999999999998L 1.2902,1.1271L 1.291,1.1275L 1.2918,1.1279L 1.2925,1.1283999999999998L 1.2933,1.1288L 1.294,1.1292L 1.2953999999999999,1.1302999999999999L 1.2961,1.1309L 1.2968,1.1314L 1.2986,1.1332L 1.2991,1.1339L 1.2997,1.1345999999999998L 1.3008,1.136L 1.3012,1.1366999999999998L 1.3016,1.1375L 1.3021,1.1381999999999999L 1.3025,1.1389999999999998L 1.3029,1.1398L 1.3032,1.1406999999999998L 1.3037,1.1421999999999999L 1.3038599669148057,1.1426799007444168L 1.4293,1.1426799007444168L 1.4293,1.1159999999999999L 1.4538461538461538,1.1159999999999999L 1.4538461538461538,1.0801488833746897L 1.4545905707196027,1.0771712158808933L 1.4568238213399503,1.0741935483870966L 1.4598014888337467,1.0727047146401985L 1.91985111662531,1.0727047146401985L 1.9228287841191065,1.0734491315136476L 1.925806451612903,1.075682382133995L 1.9272952853598013,1.0786600496277914L 1.9272952853598013,1.2592999999999999L 1.9540000000000002,1.2592999999999999L 1.9540000000000002,1.2841191066997517L 1.9898263027295282,1.2841191066997517L 1.992803970223325,1.2848635235732009L 1.9957816377171214,1.2870967741935482L 1.9972704714640197,1.2900744416873449L 1.9972704714640197,1.5997518610421835L 1.9965260545905705,1.60272952853598L 1.994292803970223,1.6057071960297764L 1.9913151364764266,1.6071960297766748L 1.94,1.6071960297766748L 1.94,1.625L 1.8399999999999999,1.625L 1.8399999999999999,1.575L 1.94,1.575L 1.94,1.5923076923076922L 1.982382133995037,1.5923076923076922L 1.982382133995037,1.4888337468982629L 1.8476426799007442,1.4888337468982629L 1.8446650124069477,1.4880893300248137L 1.8416873449131512,1.4858560794044664L 1.8401985111662529,1.4828784119106697L 1.8401985111662529,1.3905707196029775L 1.8050000000000002,1.3905707196029775L 1.8050000000000002,1.3906999999999998L 1.7498,1.3906999999999998L 1.7498,1.3749L 1.8050000000000002,1.3749L 1.8050000000000002,1.375682382133995L 1.8476426799007442,1.375682382133995L 1.8506203473945408,1.376426799007444L 1.8535980148883373,1.3786600496277914L 1.8550868486352354,1.381637717121588L 1.8550868486352354,1.4739454094292803L 1.982382133995037,1.4739454094292803L 1.982382133995037,1.2990074441687343L 1.9540000000000002,1.2990074441687343L 1.9540000000000002,1.3233L 1.8860000000000001,1.3233L 1.8860000000000001,1.2592999999999999L 1.9124069478908186,1.2592999999999999L 1.9124069478908186,1.087593052109181L 1.4687344913151363,1.087593052109181L 1.4687344913151363,1.1159999999999999L 1.4933,1.1159999999999999L 1.4933,1.184L 1.4293,1.184L 1.4293,1.1575682382133994L 1.3272952853598012,1.1575682382133994L 1.3272952853598012,1.4002481389578163L 1.3265508684863523,1.4032258064516128L 1.3243176178660048,1.4062034739454092L 1.3213399503722083,1.4076923076923076L 1.1173697270471463,1.4076923076923076L 1.1173697270471463,1.772456575682382L 1.508,1.772456575682382L 1.508,1.7459999999999998L 1.572,1.7459999999999998L 1.572,1.772456575682382L 1.5766749379652603,1.772456575682382L 1.5766749379652603,1.635L 1.5764,1.635L 1.5764,1.5797999999999999L 1.5922,1.5797999999999999L 1.5922,1.635L 1.591563275434243,1.635L 1.591563275434243,1.7799007444168733L 1.5908188585607939,1.7828784119106698L 1.5885856079404466,1.7858560794044662L 1.5856079404466499,1.7873449131513646L 1.572,1.7873449131513646L 1.572,1.8139999999999998L 1.508,1.8139999999999998L 1.508,1.7873449131513646L 1.109925558312655,1.7873449131513646L 1.1069478908188584,1.7866004962779154L 1.103970223325062,1.784367245657568L 1.1024813895781636,1.7813895781637714L 1.1024813895781636,1.4002481389578163L 1.1032258064516127,1.3972704714640196L 1.1054590570719602,1.3942928039702231L 1.1084367245657567,1.3928039702233248L 1.3124069478908187,1.3928039702233248L 1.3124069478908187,1.1575682382133994L 1.303777253928867,1.1575682382133994L 1.3037,1.1578L 1.3032,1.1593L 1.3029,1.1602L 1.3025,1.161L 1.3021,1.1618L 1.3016,1.1624999999999999L 1.3012,1.1633L 1.3008,1.164L 1.2997,1.1654L 1.2991,1.1661L 1.2986,1.1667999999999998L 1.2968,1.1685999999999999L 1.2961,1.1690999999999998L 1.2953999999999999,1.1697L 1.294,1.1707999999999998L 1.2933,1.1711999999999998L 1.2925,1.1716L 1.2918,1.1721L 1.291,1.1724999999999999L 1.2902,1.1728999999999998L 1.2893,1.1732L 1.2878,1.1737L 1.286,1.1743L 1.2852,1.1743999999999999L 1.2835,1.1747999999999998L 1.2817,1.1749999999999998L 1.18,1.1749999999999998L 1.18,1.125L 1.2223325062034738,1.125L 1.2223325062034738,1.0399503722084367L 1.223076923076923,1.03697270471464L 1.2253101736972702,1.0339950372208435L 1.228287841191067,1.0325062034739454L 2.1997518610421833,1.0325062034739454L 2.20272952853598,1.0332506203473943" fill="#ff8c00" fill-opacity="0.8"/>
  <!----><!---->
    <path fill-rule="nonzero" d="M 2.178,1.4627791563275432L 2.209429280397022,1.4627791563275432L 2.212406947890819,1.4635235732009924L 2.215384615384615,1.4657568238213399L 2.2168734491315134,1.4687344913151363L 2.2168734491315134,1.4702233250620347L 2.2176178660049626,1.7799007444168733L 2.2168734491315134,1.7828784119106698L 2.214640198511166,1.7858560794044662L 2.2116625310173696,1.7873449131513646L 1.854,1.7873449131513646L 1.854,1.794L 1.819,1.794L 1.819,1.766L 1.854,1.766L 1.854,1.772456575682382L 2.20272952853598,1.772456575682382L 2.201985111662531,1.477667493796526L 2.178,1.477667493796526L 2.178,1.4969999999999999L 2.1060000000000003,1.4969999999999999L 2.1060000000000003,1.443L 2.178,1.443L 2.178,1.4627791563275432" fill="#ff8c00" fill-opacity="0.8"/>
  <!----><!---->
    <path fill-rule="nonzero" d="M 1.6551,1.635L 1.654838709677419,1.635L 1.654838709677419,1.6928039702233248L 1.816098676592225,1.6928039702233248L 1.8162999999999998,1.6922L 1.8168,1.6906999999999999L 1.8171,1.6898L 1.8175,1.6889999999999998L 1.8178999999999998,1.6882L 1.8183999999999998,1.6875L 1.8188,1.6866999999999999L 1.8192,1.686L 1.8202999999999998,1.6845999999999999L 1.8209,1.6839L 1.8214,1.6831999999999998L 1.8232,1.6814L 1.8238999999999999,1.6808999999999998L 1.8246,1.6803L 1.8259999999999998,1.6791999999999998L 1.8267,1.6787999999999998L 1.8275,1.6784L 1.8281999999999998,1.6779L 1.829,1.6775L 1.8297999999999999,1.6770999999999998L 1.8307,1.6767999999999998L 1.8321999999999998,1.6763L 1.8339999999999999,1.6757L 1.8348,1.6756L 1.8364999999999998,1.6752L 1.8382999999999998,1.6749999999999998L 1.94,1.6749999999999998L 1.94,1.7249999999999999L 1.8382999999999998,1.7249999999999999L 1.8364999999999998,1.7247999999999999L 1.8348,1.7244L 1.8339999999999999,1.7243L 1.8321999999999998,1.7237L 1.8307,1.7231999999999998L 1.8297999999999999,1.7228999999999999L 1.829,1.7225L 1.8281999999999998,1.7221L 1.8275,1.7216L 1.8267,1.7211999999999998L 1.8259999999999998,1.7207999999999999L 1.8246,1.7197L 1.8238999999999999,1.7190999999999999L 1.8232,1.7186L 1.8214,1.7167999999999999L 1.8209,1.7161L 1.8202999999999998,1.7153999999999998L 1.8192,1.714L 1.8188,1.7132999999999998L 1.8183999999999998,1.7125L 1.8178999999999998,1.7118L 1.8175,1.7109999999999999L 1.8171,1.7102L 1.8168,1.7092999999999998L 1.8162999999999998,1.7078L 1.8162641025641022,1.7076923076923074L 1.6473945409429278,1.7076923076923074L 1.6444168734491313,1.7069478908188584L 1.6414392059553349,1.704714640198511L 1.6399503722084365,1.7017369727047145L 1.6399503722084365,1.635L 1.6393,1.635L 1.6393,1.5797999999999999L 1.6551,1.5797999999999999L 1.6551,1.635" fill="#ff8c00" fill-opacity="0.8"/>
  <!----><!---->
    <path fill-rule="nonzero" d="M 1.28,1.575L 1.18,1.575L 1.18,1.557320099255583L 1.1471464019851116,1.557320099255583L 1.1471464019851116,1.7002481389578161L 1.5454094292803968,1.7002481389578161L 1.5454094292803968,1.635L 1.5449000000000002,1.635L 1.5449000000000002,1.5797999999999999L 1.5607000000000002,1.5797999999999999L 1.5607000000000002,1.635L 1.5602977667493794,1.635L 1.5602977667493794,1.7076923076923074L 1.5595533498759304,1.710669975186104L 1.557320099255583,1.7136476426799006L 1.5543424317617864,1.715136476426799L 1.1397022332506201,1.715136476426799L 1.1367245657568237,1.7143920595533497L 1.1337468982630272,1.7121588089330022L 1.1322580645161289,1.7091811414392057L 1.1322580645161289,1.5498759305210916L 1.133002481389578,1.5468982630272952L 1.1352357320099253,1.5439205955334985L 1.138213399503722,1.5424317617866004L 1.18,1.5424317617866004L 1.18,1.525L 1.28,1.525L 1.28,1.575" fill="#ff8c00" fill-opacity="0.8"/>
  <!----><!---->
    <path fill-rule="nonzero" d="M 1.28,1.4426799007444167L 1.31985111662531,1.4426799007444167L 1.3228287841191066,1.4434243176178658L 1.3258064516129031,1.4456575682382133L 1.3272952853598012,1.4486352357320098L 1.3272952853598012,1.6697270471464019L 1.5141439205955334,1.6697270471464019L 1.5141439205955334,1.635L 1.5134,1.635L 1.5134,1.5797999999999999L 1.5292000000000001,1.5797999999999999L 1.5292000000000001,1.635L 1.529032258064516,1.635L 1.529032258064516,1.6771712158808931L 1.5282878411910668,1.6801488833746896L 1.5260545905707195,1.683126550868486L 1.523076923076923,1.6846153846153844L 1.31985111662531,1.6846153846153844L 1.3168734491315135,1.6838709677419352L 1.313895781637717,1.681637717121588L 1.3124069478908187,1.6786600496277915L 1.3124069478908187,1.4575682382133994L 1.28,1.4575682382133994L 1.28,1.4749999999999999L 1.18,1.4749999999999999L 1.18,1.4249999999999998L 1.28,1.4249999999999998L 1.28,1.4426799007444167" fill="#ff8c00" fill-opacity="0.8"/>
  <!----><!---->
    <path fill-rule="nonzero" d="M 1.28,1.6749999999999998L 1.18,1.6749999999999998L 1.18,1.625L 1.28,1.625L 1.28,1.6749999999999998" fill="#ff8c00" fill-opacity="0.8"/>
  <!----><!---->
    <path fill-rule="nonzero" d="M 1.6866,1.635L 1.6708,1.635L 1.6708,1.5797999999999999L 1.6866,1.5797999999999999L 1.6866,1.635" fill="#ff8c00" fill-opacity="0.8"/>
  <!----><!---->
    <path fill-rule="nonzero" d="M 1.7181000000000002,1.635L 1.7023000000000001,1.635L 1.7023000000000001,1.5797999999999999L 1.7181000000000002,1.5797999999999999L 1.7181000000000002,1.635" fill="#ff8c00" fill-opacity="0.8"/>
  <!----><!---->
    <path fill-rule="nonzero" d="M 1.4977,1.635L 1.4819,1.635L 1.4819,1.5797999999999999L 1.4977,1.5797999999999999L 1.4977,1.635" fill="#ff8c00" fill-opacity="0.8"/>
  <!----><!---->
    <path fill-rule="nonzero" d="M 1.8050000000000002,1.5481L 1.7498,1.5481L 1.7498,1.5323L 1.8050000000000002,1.5323L 1.8050000000000002,1.5481" fill="#ff8c00" fill-opacity="0.8"/>
  <!----><!---->
    <path fill-rule="nonzero" d="M 1.4502000000000002,1.5481L 1.3945,1.5481L 1.3939000000000001,1.548L 1.3937000000000002,1.5478999999999998L 1.3934000000000002,1.5478999999999998L 1.3931,1.5477999999999998L 1.3929,1.5477999999999998L 1.3923,1.5475999999999999L 1.3921000000000001,1.5474999999999999L 1.3916000000000002,1.5473L 1.3909,1.5469L 1.3906,1.5467L 1.3902,1.5464L 1.3900000000000001,1.5462L 1.3898000000000001,1.5461L 1.3892000000000002,1.5454999999999999L 1.389,1.5453L 1.3888,1.545L 1.3887,1.5448L 1.3885,1.5446L 1.3884,1.5444L 1.3882,1.5441L 1.3881000000000001,1.5438999999999998L 1.3880000000000001,1.5436999999999999L 1.3878000000000001,1.5433999999999999L 1.3877000000000002,1.5431L 1.3876000000000002,1.5426L 1.3874,1.5421L 1.3873000000000002,1.5417999999999998L 1.3872,1.5413L 1.3872,1.5391L 1.3873000000000002,1.5386L 1.3874,1.5383L 1.3876000000000002,1.5377999999999998L 1.3877000000000002,1.5372999999999999L 1.3878000000000001,1.537L 1.3880000000000001,1.5367L 1.3882,1.5363L 1.3884,1.536L 1.3885,1.5358L 1.3887,1.5355999999999999L 1.3888,1.5353999999999999L 1.389,1.5351L 1.3892000000000002,1.5349L 1.3898000000000001,1.5343L 1.3900000000000001,1.5342L 1.3902,1.534L 1.3906,1.5336999999999998L 1.3909,1.5334999999999999L 1.3916000000000002,1.5331L 1.3921000000000001,1.5329L 1.3923,1.5328L 1.3929,1.5326L 1.3931,1.5326L 1.3934000000000002,1.5325L 1.3937000000000002,1.5325L 1.3939000000000001,1.5324L 1.3945,1.5323L 1.4502000000000002,1.5323L 1.4502000000000002,1.5481" fill="#ff8c00" fill-opacity="0.8"/>
  <!----><!---->
    <path fill-rule="nonzero" d="M 1.4502000000000002,1.5166L 1.395,1.5166L 1.395,1.5008L 1.4502000000000002,1.5008L 1.4502000000000002,1.5166" fill="#ff8c00" fill-opacity="0.8"/>
  <!----><!---->
    <path fill-rule="nonzero" d="M 1.8050000000000002,1.5166L 1.7498,1.5166L 1.7498,1.5008L 1.8050000000000002,1.5008L 1.8050000000000002,1.5166" fill="#ff8c00" fill-opacity="0.8"/>
  <!----><!---->
    <path fill-rule="nonzero" d="M 2.0700000000000003,1.415L 2.046467384447155,1.415L 2.045657568238213,1.4627791563275432L 2.0620000000000003,1.4627791563275432L 2.0620000000000003,1.443L 2.084,1.443L 2.084,1.4969999999999999L 2.0620000000000003,1.4969999999999999L 2.0620000000000003,1.477667493796526L 2.038213399503722,1.477667493796526L 2.0352357320099252,1.4769230769230768L 2.032258064516129,1.4746898263027293L 2.0307692307692307,1.4717121588089328L 2.0307692307692307,1.4702233250620347L 2.031632095223325,1.415L 2.0100000000000002,1.415L 2.01,1.335L 2.0700000000000003,1.335L 2.0700000000000003,1.415" fill="#ff8c00" fill-opacity="0.8"/>
  <!----><!---->
    <path fill-rule="nonzero" d="M 1.8050000000000002,1.4850999999999999L 1.7498,1.4850999999999999L 1.7498,1.4693L 1.8050000000000002,1.4693L 1.8050000000000002,1.4850999999999999" fill="#ff8c00" fill-opacity="0.8"/>
  <!----><!---->
    <path fill-rule="nonzero" d="M 1.4502000000000002,1.4850999999999999L 1.395,1.4850999999999999L 1.395,1.4693L 1.4502000000000002,1.4693L 1.4502000000000002,1.4850999999999999" fill="#ff8c00" fill-opacity="0.8"/>
  <!----><!---->
    <path fill-rule="nonzero" d="M 1.4502000000000002,1.4536L 1.395,1.4536L 1.395,1.4378L 1.4502000000000002,1.4378L 1.4502000000000002,1.4536" fill="#ff8c00" fill-opacity="0.8"/>
  <!----><!---->
    <path fill-rule="nonzero" d="M 1.8050000000000002,1.4536L 1.7498,1.4536L 1.7498,1.4378L 1.8050000000000002,1.4378L 1.8050000000000002,1.4536" fill="#ff8c00" fill-opacity="0.8"/>
  <!----><!---->
    <path fill-rule="nonzero" d="M 1.8050000000000002,1.4222L 1.7498,1.4222L 1.7498,1.4063999999999999L 1.8050000000000002,1.4063999999999999L 1.8050000000000002,1.4222" fill="#ff8c00" fill-opacity="0.8"/>
  <!----><!---->
    <path fill-rule="nonzero" d="M 1.4502000000000002,1.4222L 1.395,1.4222L 1.395,1.4063999999999999L 1.4502000000000002,1.4063999999999999L 1.4502000000000002,1.4222" fill="#ff8c00" fill-opacity="0.8"/>
  <!----><!---->
    <path fill-rule="nonzero" d="M 2.2300000000000004,1.415L 2.1700000000000004,1.415L 2.1700000000000004,1.335L 2.2300000000000004,1.335L 2.2300000000000004,1.415" fill="#ff8c00" fill-opacity="0.8"/>
  <!----><!---->
    <path fill-rule="nonzero" d="M 1.4502000000000002,1.3906999999999998L 1.395,1.3906999999999998L 1.395,1.3749L 1.4502000000000002,1.3749L 1.4502000000000002,1.3906999999999998" fill="#ff8c00" fill-opacity="0.8"/>
  <!----><!---->
    <path fill-rule="nonzero" d="M 1.4502000000000002,1.3592L 1.395,1.3592L 1.395,1.3434L 1.4502000000000002,1.3434L 1.4502000000000002,1.3592" fill="#ff8c00" fill-opacity="0.8"/>
  <!----><!---->
    <path fill-rule="nonzero" d="M 1.8050000000000002,1.3276999999999999L 1.7498,1.3276999999999999L 1.7498,1.3118999999999998L 1.8050000000000002,1.3118999999999998L 1.8050000000000002,1.3276999999999999" fill="#ff8c00" fill-opacity="0.8"/>
  <!----><!---->
    <path fill-rule="nonzero" d="M 1.4502000000000002,1.3276999999999999L 1.395,1.3276999999999999L 1.395,1.3118999999999998L 1.4502000000000002,1.3118999999999998L 1.4502000000000002,1.3276999999999999" fill="#ff8c00" fill-opacity="0.8"/>
  <!----><!---->
    <path fill-rule="nonzero" d="M 1.6866,1.2802L 1.6708,1.2802L 1.6708,1.2249999999999999L 1.6866,1.2249999999999999L 1.6866,1.2802" fill="#ff8c00" fill-opacity="0.8"/>
  <!----><!---->
    <path fill-rule="nonzero" d="M 1.6236000000000002,1.2802L 1.6078000000000001,1.2802L 1.6078000000000001,1.2249999999999999L 1.6236000000000002,1.2249999999999999L 1.6236000000000002,1.2802" fill="#ff8c00" fill-opacity="0.8"/>
  <!----><!---->
    <path fill-rule="nonzero" d="M 1.5607000000000002,1.2802L 1.5449000000000002,1.2802L 1.5449000000000002,1.2249999999999999L 1.5607000000000002,1.2249999999999999L 1.5607000000000002,1.2802" fill="#ff8c00" fill-opacity="0.8"/>
  <!----><!---->
    <path fill-rule="nonzero" d="M 1.4977,1.2802L 1.4819,1.2802L 1.4819,1.2249999999999999L 1.4977,1.2249999999999999L 1.4977,1.2802" fill="#ff8c00" fill-opacity="0.8"/>
  <!----><!---->
    <path fill-rule="nonzero" d="M 1.5922,1.2802L 1.5764,1.2802L 1.5764,1.2249999999999999L 1.5922,1.2249999999999999L 1.5922,1.2802" fill="#ff8c00" fill-opacity="0.8"/>
  <!----><!---->
    <path fill-rule="nonzero" d="M 1.6551,1.2802L 1.6393,1.2802L 1.6393,1.2249999999999999L 1.6551,1.2249999999999999L 1.6551,1.2802" fill="#ff8c00" fill-opacity="0.8"/>
  <!----><!---->
    <path fill-rule="nonzero" d="M 1.7181000000000002,1.2802L 1.7023000000000001,1.2802L 1.7023000000000001,1.2249999999999999L 1.7181000000000002,1.2249999999999999L 1.7181000000000002,1.2802" fill="#ff8c00" fill-opacity="0.8"/>
  <!----><!---->
    <path fill-rule="nonzero" d="M 1.28,1.275L 1.18,1.275L 1.18,1.2249999999999999L 1.28,1.2249999999999999L 1.28,1.275" fill="#ff8c00" fill-opacity="0.8"/>
  <!----><!---->
    <path fill-rule="nonzero" d="M 2.07,1.165L 2.01,1.165L 2.01,1.085L 2.07,1.085L 2.07,1.165" fill="#ff8c00" fill-opacity="0.8"/>
  <!---->
    </g>
  <!----><!---->
    <g id="drill">
      <!--?lit$7061360188$-->
    </g>
  <!----><!---->
    <g id="padLabels">
      <!--?lit$7061360188$--><!---->
    <path fill-rule="nonzero" d="" fill="#ffff99" fill-opacity="0.8980392156862745"/>
  <!----><!---->
    <text text-anchor="middle" x="1.4226" y="-1.53314444" transform="scale(1 -1)" style="font: 0.02pt sans-serif;" fill="#ffff99" opacity="0.8980392156862745">
      <!--?lit$7061360188$-->PA3
    </text>
  <!----><!---->
    <text text-anchor="middle" x="1.4226" y="-1.50164444" transform="scale(1 -1)" style="font: 0.02pt sans-serif;" fill="#ffff99" opacity="0.8980392156862745">
      <!--?lit$7061360188$-->PA4
    </text>
  <!----><!---->
    <text text-anchor="middle" x="1.4226" y="-1.4701444399999999" transform="scale(1 -1)" style="font: 0.02pt sans-serif;" fill="#ffff99" opacity="0.8980392156862745">
      <!--?lit$7061360188$-->PA5
    </text>
  <!----><!---->
    <text text-anchor="middle" x="1.4226" y="-1.43864444" transform="scale(1 -1)" style="font: 0.02pt sans-serif;" fill="#ffff99" opacity="0.8980392156862745">
      <!--?lit$7061360188$-->PA6
    </text>
  <!----><!---->
    <text text-anchor="middle" x="1.4226" y="-1.40724444" transform="scale(1 -1)" style="font: 0.02pt sans-serif;" fill="#ffff99" opacity="0.8980392156862745">
      <!--?lit$7061360188$-->PA7
    </text>
  <!----><!---->
    <text text-anchor="middle" x="1.4226" y="-1.37574444" transform="scale(1 -1)" style="font: 0.02pt sans-serif;" fill="#ffff99" opacity="0.8980392156862745">
      <!--?lit$7061360188$-->PC0
    </text>
  <!----><!---->
    <text text-anchor="middle" x="1.4226" y="-1.34424444" transform="scale(1 -1)" style="font: 0.02pt sans-serif;" fill="#ffff99" opacity="0.8980392156862745">
      <!--?lit$7061360188$-->PC1
    </text>
  <!----><!---->
    <text text-anchor="middle" x="1.4226" y="-1.31274444" transform="scale(1 -1)" style="font: 0.02pt sans-serif;" fill="#ffff99" opacity="0.8980392156862745">
      <!--?lit$7061360188$-->PC2
    </text>
  <!----><!---->
    <text text-anchor="middle" x="1.4898" y="-1.24554444" transform="scale(1 -1)" style="font: 0.02pt sans-serif;" fill="#ffff99" opacity="0.8980392156862745">
      <!--?lit$7061360188$-->PC3
    </text>
  <!----><!---->
    <text text-anchor="middle" x="1.5213" y="-1.24554444" transform="scale(1 -1)" style="font: 0.02pt sans-serif;" fill="#ffff99" opacity="0.8980392156862745">
      <!--?lit$7061360188$-->VIO2
    </text>
  <!----><!---->
    <text text-anchor="middle" x="1.5528000000000002" y="-1.24554444" transform="scale(1 -1)" style="font: 0.02pt sans-serif;" fill="#ffff99" opacity="0.8980392156862745">
      <!--?lit$7061360188$-->PD1
    </text>
  <!----><!---->
    <text text-anchor="middle" x="1.5843" y="-1.24554444" transform="scale(1 -1)" style="font: 0.02pt sans-serif;" fill="#ffff99" opacity="0.8980392156862745">
      <!--?lit$7061360188$-->PD2
    </text>
  <!----><!---->
    <text text-anchor="middle" x="1.6157000000000001" y="-1.24554444" transform="scale(1 -1)" style="font: 0.02pt sans-serif;" fill="#ffff99" opacity="0.8980392156862745">
      <!--?lit$7061360188$-->PD3
    </text>
  <!----><!---->
    <text text-anchor="middle" x="1.6472" y="-1.24554444" transform="scale(1 -1)" style="font: 0.02pt sans-serif;" fill="#ffff99" opacity="0.8980392156862745">
      <!--?lit$7061360188$-->PD4
    </text>
  <!----><!---->
    <text text-anchor="middle" x="1.6787" y="-1.24554444" transform="scale(1 -1)" style="font: 0.02pt sans-serif;" fill="#ffff99" opacity="0.8980392156862745">
      <!--?lit$7061360188$-->PD5
    </text>
  <!----><!---->
    <text text-anchor="middle" x="1.7102000000000002" y="-1.24554444" transform="scale(1 -1)" style="font: 0.02pt sans-serif;" fill="#ffff99" opacity="0.8980392156862745">
      <!--?lit$7061360188$-->PD6
    </text>
  <!----><!---->
    <text text-anchor="middle" x="1.7774" y="-1.31274444" transform="scale(1 -1)" style="font: 0.02pt sans-serif;" fill="#ffff99" opacity="0.8980392156862745">
      <!--?lit$7061360188$-->PD7
    </text>
  <!----><!---->
    <text text-anchor="middle" x="1.7774" y="-1.34424444" transform="scale(1 -1)" style="font: 0.02pt sans-serif;" fill="#ffff99" opacity="0.8980392156862745">
      <!--?lit$7061360188$-->AVDD
    </text>
  <!----><!---->
    <text text-anchor="middle" x="1.7774" y="-1.37574444" transform="scale(1 -1)" style="font: 0.02pt sans-serif;" fill="#ffff99" opacity="0.8980392156862745">
      <!--?lit$7061360188$-->GND1
    </text>
  <!----><!---->
    <text text-anchor="middle" x="1.5843" y="-1.60034444" transform="scale(1 -1)" style="font: 0.02pt sans-serif;" fill="#ffff99" opacity="0.8980392156862745">
      <!--?lit$7061360188$-->GND2
    </text>
  <!----><!---->
    <text text-anchor="middle" x="1.7774" y="-1.40724444" transform="scale(1 -1)" style="font: 0.02pt sans-serif;" fill="#ffff99" opacity="0.8980392156862745">
      <!--?lit$7061360188$-->PF0
    </text>
  <!----><!---->
    <text text-anchor="middle" x="1.7774" y="-1.43864444" transform="scale(1 -1)" style="font: 0.02pt sans-serif;" fill="#ffff99" opacity="0.8980392156862745">
      <!--?lit$7061360188$-->PF1
    </text>
  <!----><!---->
    <text text-anchor="middle" x="1.7774" y="-1.4701444399999999" transform="scale(1 -1)" style="font: 0.02pt sans-serif;" fill="#ffff99" opacity="0.8980392156862745">
      <!--?lit$7061360188$-->PF2
    </text>
  <!----><!---->
    <text text-anchor="middle" x="1.7774" y="-1.50164444" transform="scale(1 -1)" style="font: 0.02pt sans-serif;" fill="#ffff99" opacity="0.8980392156862745">
      <!--?lit$7061360188$-->PF3
    </text>
  <!----><!---->
    <text text-anchor="middle" x="1.7774" y="-1.53314444" transform="scale(1 -1)" style="font: 0.02pt sans-serif;" fill="#ffff99" opacity="0.8980392156862745">
      <!--?lit$7061360188$-->PF4
    </text>
  <!----><!---->
    <text text-anchor="middle" x="1.7102000000000002" y="-1.60034444" transform="scale(1 -1)" style="font: 0.02pt sans-serif;" fill="#ffff99" opacity="0.8980392156862745">
      <!--?lit$7061360188$-->PF5
    </text>
  <!----><!---->
    <text text-anchor="middle" x="1.6787" y="-1.60034444" transform="scale(1 -1)" style="font: 0.02pt sans-serif;" fill="#ffff99" opacity="0.8980392156862745">
      <!--?lit$7061360188$-->PF6
    </text>
  <!----><!---->
    <text text-anchor="middle" x="1.6472" y="-1.60034444" transform="scale(1 -1)" style="font: 0.02pt sans-serif;" fill="#ffff99" opacity="0.8980392156862745">
      <!--?lit$7061360188$-->UPDI
    </text>
  <!----><!---->
    <text text-anchor="middle" x="1.6157000000000001" y="-1.60034444" transform="scale(1 -1)" style="font: 0.02pt sans-serif;" fill="#ffff99" opacity="0.8980392156862745">
      <!--?lit$7061360188$-->VDD
    </text>
  <!----><!---->
    <text text-anchor="middle" x="1.5528000000000002" y="-1.60034444" transform="scale(1 -1)" style="font: 0.02pt sans-serif;" fill="#ffff99" opacity="0.8980392156862745">
      <!--?lit$7061360188$-->PA0
    </text>
  <!----><!---->
    <text text-anchor="middle" x="1.5213" y="-1.60034444" transform="scale(1 -1)" style="font: 0.02pt sans-serif;" fill="#ffff99" opacity="0.8980392156862745">
      <!--?lit$7061360188$-->PA1
    </text>
  <!----><!---->
    <text text-anchor="middle" x="1.4898" y="-1.60034444" transform="scale(1 -1)" style="font: 0.02pt sans-serif;" fill="#ffff99" opacity="0.8980392156862745">
      <!--?lit$7061360188$-->PA2
    </text>
  <!----><!---->
    <text text-anchor="middle" x="1.23" y="-1.14294444" transform="scale(1 -1)" style="font: 0.02pt sans-serif;" fill="#ffff99" opacity="0.8980392156862745">
      <!--?lit$7061360188$-->GND
    </text>
  <!----><!---->
    <text text-anchor="middle" x="1.23" y="-1.24294444" transform="scale(1 -1)" style="font: 0.02pt sans-serif;" fill="#ffff99" opacity="0.8980392156862745">
      <!--?lit$7061360188$-->CTS
    </text>
  <!----><!---->
    <text text-anchor="middle" x="1.23" y="-1.34294444" transform="scale(1 -1)" style="font: 0.02pt sans-serif;" fill="#ffff99" opacity="0.8980392156862745">
      <!--?lit$7061360188$-->VCC
    </text>
  <!----><!---->
    <text text-anchor="middle" x="1.23" y="-1.44294444" transform="scale(1 -1)" style="font: 0.02pt sans-serif;" fill="#ffff99" opacity="0.8980392156862745">
      <!--?lit$7061360188$-->Tx
    </text>
  <!----><!---->
    <text text-anchor="middle" x="1.23" y="-1.5429444399999999" transform="scale(1 -1)" style="font: 0.02pt sans-serif;" fill="#ffff99" opacity="0.8980392156862745">
      <!--?lit$7061360188$-->Rx
    </text>
  <!----><!---->
    <text text-anchor="middle" x="1.23" y="-1.64294444" transform="scale(1 -1)" style="font: 0.02pt sans-serif;" fill="#ffff99" opacity="0.8980392156862745">
      <!--?lit$7061360188$-->RTS
    </text>
  <!----><!---->
    <text text-anchor="middle" x="1.89" y="-1.69294444" transform="scale(1 -1)" style="font: 0.02pt sans-serif;" fill="#ffff99" opacity="0.8980392156862745">
      <!--?lit$7061360188$-->UPDI
    </text>
  <!----><!---->
    <text text-anchor="middle" x="1.89" y="-1.59294444" transform="scale(1 -1)" style="font: 0.02pt sans-serif;" fill="#ffff99" opacity="0.8980392156862745">
      <!--?lit$7061360188$-->GND
    </text>
  <!----><!---->
    <text text-anchor="middle" x="1.4613" y="-1.14294444" transform="scale(1 -1)" style="font: 0.02pt sans-serif;" fill="#ffff99" opacity="0.8980392156862745">
      <!--?lit$7061360188$-->1
    </text>
  <!----><!---->
    <text text-anchor="middle" x="1.5813000000000001" y="-1.14294444" transform="scale(1 -1)" style="font: 0.02pt sans-serif;" fill="#ffff99" opacity="0.8980392156862745">
      <!--?lit$7061360188$-->2
    </text>
  <!----><!---->
    <text text-anchor="middle" x="1.9200000000000002" y="-1.28424444" transform="scale(1 -1)" style="font: 0.02pt sans-serif;" fill="#ffff99" opacity="0.8980392156862745">
      <!--?lit$7061360188$-->1
    </text>
  <!----><!---->
    <text text-anchor="middle" x="1.9200000000000002" y="-1.40424444" transform="scale(1 -1)" style="font: 0.02pt sans-serif;" fill="#ffff99" opacity="0.8980392156862745">
      <!--?lit$7061360188$-->2
    </text>
  <!----><!---->
    <text text-anchor="middle" x="1.54" y="-1.7729444399999998" transform="scale(1 -1)" style="font: 0.02pt sans-serif;" fill="#ffff99" opacity="0.8980392156862745">
      <!--?lit$7061360188$-->1
    </text>
  <!----><!---->
    <text text-anchor="middle" x="1.6600000000000001" y="-1.7729444399999998" transform="scale(1 -1)" style="font: 0.02pt sans-serif;" fill="#ffff99" opacity="0.8980392156862745">
      <!--?lit$7061360188$-->2
    </text>
  <!----><!---->
    <text text-anchor="middle" x="2.04" y="-1.11794444" transform="scale(1 -1)" style="font: 0.02pt sans-serif;" fill="#ffff99" opacity="0.8980392156862745">
      <!--?lit$7061360188$-->L1
    </text>
  <!----><!---->
    <text text-anchor="middle" x="2.2" y="-1.11794444" transform="scale(1 -1)" style="font: 0.02pt sans-serif;" fill="#ffff99" opacity="0.8980392156862745">
      <!--?lit$7061360188$-->R1
    </text>
  <!----><!---->
    <text text-anchor="middle" x="2.2" y="-1.36794444" transform="scale(1 -1)" style="font: 0.02pt sans-serif;" fill="#ffff99" opacity="0.8980392156862745">
      <!--?lit$7061360188$-->R2
    </text>
  <!----><!---->
    <text text-anchor="middle" x="2.04" y="-1.36794444" transform="scale(1 -1)" style="font: 0.02pt sans-serif;" fill="#ffff99" opacity="0.8980392156862745">
      <!--?lit$7061360188$-->L2
    </text>
  <!----><!---->
    <text text-anchor="middle" x="2.073" y="-1.46294444" transform="scale(1 -1)" style="font: 0.02pt sans-serif;" fill="#ffff99" opacity="0.8980392156862745">
      <!--?lit$7061360188$-->A
    </text>
  <!----><!---->
    <text text-anchor="middle" x="2.142" y="-1.46294444" transform="scale(1 -1)" style="font: 0.02pt sans-serif;" fill="#ffff99" opacity="0.8980392156862745">
      <!--?lit$7061360188$-->C
    </text>
  <!----><!---->
    <text text-anchor="middle" x="1.7835" y="-1.77294444" transform="scale(1 -1)" style="font: 0.02pt sans-serif;" fill="#ffff99" opacity="0.8980392156862745">
      <!--?lit$7061360188$-->1
    </text>
  <!----><!---->
    <text text-anchor="middle" x="1.8365" y="-1.77294444" transform="scale(1 -1)" style="font: 0.02pt sans-serif;" fill="#ffff99" opacity="0.8980392156862745">
      <!--?lit$7061360188$-->2
    </text>
  <!---->
    </g>
  <!----><!---->
    <g id="componentLabels">
      <!--?lit$7061360188$--><!---->
    <path fill-rule="nonzero" d="" fill="#00e5e5" fill-opacity="0.8980392156862745"/>
  <!----><!---->
    <text text-anchor="middle" x="1.6" y="-1.4211805499999999" transform="scale(1 -1)" style="font: 0.025pt sans-serif;" fill="#00e5e5" opacity="0.8980392156862745">
      <!--?lit$7061360188$-->IC1
128DB32
    </text>
  <!----><!---->
    <text text-anchor="middle" x="1.23" y="-1.3911805499999998" transform="scale(1 -1)" style="font: 0.025pt sans-serif;" fill="#00e5e5" opacity="0.8980392156862745">
      <!--?lit$7061360188$-->J1
serial
5V
    </text>
  <!----><!---->
    <text text-anchor="middle" x="1.89" y="-1.6411805499999998" transform="scale(1 -1)" style="font: 0.025pt sans-serif;" fill="#00e5e5" opacity="0.8980392156862745">
      <!--?lit$7061360188$-->J2
UPDI
    </text>
  <!----><!---->
    <text text-anchor="middle" x="1.5213" y="-1.1411805499999998" transform="scale(1 -1)" style="font: 0.025pt sans-serif;" fill="#00e5e5" opacity="0.8980392156862745">
      <!--?lit$7061360188$-->C1 1uF
    </text>
  <!----><!---->
    <text text-anchor="middle" x="1.9200000000000002" y="-1.3424805499999999" transform="scale(1 -1)" style="font: 0.025pt sans-serif;" fill="#00e5e5" opacity="0.8980392156862745">
      <!--?lit$7061360188$-->C2
1uF
    </text>
  <!----><!---->
    <text text-anchor="middle" x="1.6" y="-1.7711805499999997" transform="scale(1 -1)" style="font: 0.025pt sans-serif;" fill="#00e5e5" opacity="0.8980392156862745">
      <!--?lit$7061360188$-->C3 1uF
    </text>
  <!----><!---->
    <text text-anchor="middle" x="2.12" y="-1.24118055" transform="scale(1 -1)" style="font: 0.025pt sans-serif;" fill="#00e5e5" opacity="0.8980392156862745">
      <!--?lit$7061360188$-->button
    </text>
  <!----><!---->
    <text text-anchor="middle" x="2.12" y="-1.46118055" transform="scale(1 -1)" style="font: 0.025pt sans-serif;" fill="#00e5e5" opacity="0.8980392156862745">
      <!--?lit$7061360188$-->LED
    </text>
  <!----><!---->
    <text text-anchor="middle" x="1.81" y="-1.77118055" transform="scale(1 -1)" style="font: 0.025pt sans-serif;" fill="#00e5e5" opacity="0.8980392156862745">
      <!--?lit$7061360188$-->R
    </text>
  <!---->
    </g>
  <!----></g>
          <g class="paths"><!--?lit$7061360188$--></g>


        <!--?lit$7061360188$-->
        
    

        
        
      </g>

    </svg>