<svg width="1523" height="1548" viewBox="0 0 1523 1548" fill="none" xmlns="http://www.w3.org/2000/svg">
<g clip-path="url(#clip0_4_33)">
<rect width="1523" height="1548" fill="white"/>
<rect y="-154" width="1770" height="2005" fill="#002D00"/>
<g clip-path="url(#clip1_4_33)">
<path d="M1160.38 1030.44C1302.05 1030.25 1417.05 1134.22 1417.23 1262.67C1417.35 1301.5 1406.69 1339.75 1386.23 1373.87L1413.28 1373.83C1450.26 1373.78 1480.28 1400.92 1480.32 1434.45L1480.37 1467.76C1480.38 1475.03 1477.2 1482 1471.54 1487.15C1465.88 1492.29 1458.19 1495.19 1450.18 1495.2L1161.01 1495.6C1019.33 1495.79 904.329 1391.82 904.153 1263.37C903.977 1134.93 1018.69 1030.64 1160.38 1030.44ZM366.167 1031.53C224.488 1031.72 109.771 1136.01 109.947 1264.45C109.937 1303.29 120.704 1341.5 141.259 1375.57L114.208 1375.61C77.2278 1375.66 47.2835 1402.88 47.3293 1436.41L47.3748 1469.72C47.3848 1476.98 50.579 1483.95 56.2547 1489.08C61.9305 1494.21 69.6229 1497.09 77.6397 1497.08L366.803 1496.68C508.487 1496.49 623.204 1392.2 623.028 1263.75C622.858 1135.31 507.856 1031.34 366.167 1031.53V1031.53Z" fill="#002D00"/>
<path d="M499.363 1496.5L1028.46 1495.78C1146.03 1495.62 1242.12 1408.27 1241.97 1301.67L1241.42 899.875C1241.1 660.372 1026.67 466.514 762.496 466.875C498.319 467.236 284.431 661.68 284.759 901.183L285.308 1302.98C285.459 1409.58 381.783 1496.66 499.363 1496.5V1496.5Z" fill="#002D00"/>
<path d="M284.923 1017.71L285.278 1276.78C349.129 1262.05 396.325 1209.55 396.24 1147.09C396.154 1084.63 348.815 1032.26 284.923 1017.71Z" fill="#002D00"/>
<path d="M1045.81 89.7873L478.151 90.5634C352.001 90.7358 248.91 184.45 249.066 298.823L249.364 516.533C249.715 773.49 479.769 981.48 763.199 981.093C1046.62 980.705 1276.11 772.087 1275.76 515.129L1275.46 297.415C1275.31 183.047 1171.97 89.6148 1045.81 89.7873V89.7873Z" fill="#002D00"/>
<path d="M958.347 494.588L566.733 495.123C506.412 495.205 457.575 539.602 457.65 594.289L457.921 792.333C457.996 847.02 506.953 891.288 567.275 891.205C627.596 891.123 676.432 846.722 676.357 792.034L676.222 693.017L849.394 692.78L849.529 791.798C849.604 846.485 898.561 890.753 958.883 890.67C1019.2 890.588 1068.04 846.186 1067.97 791.499L1067.7 593.455C1067.63 538.768 1018.67 494.505 958.347 494.588V494.588Z" fill="#002D00"/>
<path d="M641.102 663.483C624.277 663.506 617.372 652.707 625.771 639.481L655.33 592.918C663.73 579.692 677.496 579.674 685.932 592.876L715.618 639.358C724.049 652.561 717.178 663.379 700.353 663.402L641.102 663.483ZM884.438 663.15C901.263 663.127 908.139 652.309 899.698 639.106L870.017 592.625C861.586 579.422 847.815 579.441 839.415 592.667L809.856 639.229C801.456 652.455 808.362 663.254 825.187 663.231L884.438 663.15Z" fill="#002D00"/>
<path d="M850.414 618.021L674.993 618.261C636.02 618.315 604.157 647.272 604.205 682.614L604.253 717.677C604.362 797.089 675.448 861.35 763.041 861.23C850.628 861.11 921.539 796.655 921.43 717.244L921.382 682.18C921.334 646.834 889.397 617.968 850.414 618.021Z" fill="#002D00"/>
<path d="M813.795 545.06C787.895 569.485 744.686 570.232 717.787 546.747L687.765 520.555C660.851 497.061 669.411 477.802 706.775 477.75L817.54 477.599C854.904 477.548 864.277 497.489 838.371 521.896L813.795 545.06V545.06Z" fill="#002D00"/>
<path d="M1258.19 289.812C1189.44 291.049 1132.14 241.028 1130.85 178.711L1129.39 109.19C1128.09 46.8545 1166.89 31.8731 1215.58 75.8948L1359.93 206.397C1408.62 250.418 1392.18 287.436 1323.43 288.641L1258.19 289.812V289.812ZM266.332 291.168C335.088 292.217 392.251 242.04 393.365 179.719L394.638 110.195C395.767 47.8557 356.927 32.9804 308.363 77.1351L164.372 208.031C115.802 252.186 132.339 289.159 201.09 290.175L266.332 291.168Z" fill="#002D00"/>
<path d="M905.656 331.275C905.697 361.038 918.777 389.564 942.02 410.579C965.262 431.593 996.763 443.373 1029.59 443.328C1062.42 443.283 1093.89 431.417 1117.08 410.339C1140.26 389.262 1153.26 360.7 1153.22 330.937C1153.18 301.173 1140.1 272.647 1116.86 251.633C1093.62 230.619 1062.12 218.839 1029.29 218.884C996.457 218.928 964.988 230.795 941.803 251.872C918.618 272.95 905.615 301.512 905.656 331.275V331.275Z" fill="#002D00"/>
<path d="M984.257 331.168C984.272 342.031 989.046 352.444 997.53 360.114C1006.01 367.784 1017.51 372.084 1029.5 372.068C1041.48 372.052 1052.96 367.72 1061.43 360.027C1069.89 352.333 1074.64 341.908 1074.62 331.044C1074.61 320.18 1069.83 309.768 1061.35 302.097C1052.86 294.427 1041.37 290.127 1029.38 290.144C1017.4 290.16 1005.91 294.491 997.451 302.185C988.988 309.878 984.242 320.304 984.257 331.168Z" fill="#002D00"/>
<path d="M450.011 331.898C450.026 342.762 454.8 353.174 463.284 360.844C471.768 368.515 483.266 372.815 495.249 372.798C507.232 372.782 518.719 368.451 527.182 360.757C535.644 353.064 540.39 342.638 540.376 331.774C540.361 320.911 535.586 310.498 527.102 302.828C518.619 295.158 507.12 290.858 495.137 290.874C483.154 290.89 471.668 295.222 463.205 302.915C454.742 310.609 449.996 321.034 450.011 331.898Z" fill="#002D00"/>
<path d="M633.072 1055.2C632.995 999.023 582.699 953.554 520.743 953.639C458.782 953.724 408.616 999.334 408.692 1055.5L409.13 1375.2L316.127 1375.33C279.142 1375.38 249.208 1402.6 249.253 1436.13L249.299 1469.44C249.32 1484.57 262.862 1496.82 279.559 1496.8L566.719 1496.41C603.699 1496.36 633.638 1469.13 633.592 1435.6L633.072 1055.2V1055.2ZM893.539 1054.84C893.463 998.667 943.634 953.061 1005.59 952.976C1067.55 952.891 1117.84 998.365 1117.92 1054.53L1118.36 1374.23L1211.35 1374.11C1248.34 1374.06 1278.35 1401.2 1278.39 1434.72L1278.44 1468.03C1278.46 1483.17 1264.95 1495.45 1248.25 1495.47L961.094 1495.87C924.114 1495.92 894.1 1468.77 894.054 1435.25L893.534 1054.84L893.539 1054.84V1054.84Z" fill="#002D00"/>
</g>
<g clip-path="url(#clip2_4_33)">
<path d="M319.051 1519.83L319.051 220.754L1209.05 220.754L1209.05 1519.83L319.051 1519.83Z" fill="#002D00"/>
<path d="M1008.05 885.962L1008.05 949.916L1034.49 949.916L1034.49 970.17L967.053 970.17L967.053 970.002L911.853 970.002L911.853 970.17L848.381 970.17L848.381 749.56L848.653 749.56L848.653 694.399L848.381 694.399L848.381 579.63L847.636 576.654L845.403 573.679L842.426 572.191L812.753 572.191L812.753 545.505L748.753 545.505L748.753 613.457L812.753 613.457L812.753 587.069L833.492 587.069L833.492 694.399L832.853 694.399L832.853 749.56L833.492 749.56L833.492 876.44L612.253 876.44L612.253 875.669L557.053 875.669L557.053 876.44L419.597 876.44L419.597 871.273L446.053 871.273L446.053 807.318L419.597 807.318L419.597 733.371L426.053 733.371L426.053 698.396L398.053 698.396L398.053 733.371L404.708 733.371L404.708 807.318L378.053 807.318L378.053 831.807L342.177 831.807L339.2 832.551L336.222 834.783L334.733 837.758L334.733 1418.73L335.478 1421.71L337.711 1424.68L340.689 1426.17L841.681 1426.17L844.659 1425.43L847.636 1423.2L849.125 1420.22L849.125 1318.95L867.053 1318.95L867.053 1219.02L817.053 1219.02L817.053 1318.95L834.237 1318.95L834.237 1411.29L349.621 1411.29L349.622 846.685L378.053 846.685L378.053 871.273L404.708 871.273L404.708 883.879L405.453 886.854L407.686 889.83L410.664 891.318L557.053 891.318L557.053 891.458L612.253 891.458L612.253 891.318L833.492 891.318L833.492 977.608L834.237 980.584L836.47 983.56L839.448 985.047L911.853 985.047L911.853 985.791L967.053 985.791L967.053 985.047L1041.93 985.047L1044.91 984.303L1047.88 982.072L1049.37 979.096L1049.37 949.916L1076.05 949.916L1076.05 885.962L1008.05 885.962Z" fill="#FF8C00" fill-opacity="0.8"/>
<path d="M1158.8 296.953L1156.57 293.978L1153.59 292.49L1107.05 292.49L1107.05 269.702L1027.05 269.702L1027.05 329.659L1107.05 329.659L1107.05 307.368L1144.66 307.368L1144.66 1261.77L1067.05 1261.77L1067.05 1217.33L1066.85 1215.53L1066.45 1213.83L1066.35 1213.03L1065.75 1211.23L1065.25 1209.73L1064.95 1208.83L1064.55 1208.03L1064.15 1207.23L1063.65 1206.53L1063.25 1205.73L1062.85 1205.03L1061.75 1203.63L1061.15 1202.94L1060.65 1202.24L1058.85 1200.44L1058.15 1199.94L1057.45 1199.34L1056.05 1198.24L1055.35 1197.84L1054.55 1197.44L1053.85 1196.94L1053.05 1196.54L1052.25 1196.14L1051.35 1195.84L1049.85 1195.34L1049.37 1195.18L1049.37 1069.83L1076.05 1069.83L1076.05 1045.3L1111.9 1045.3L1114.88 1044.56L1117.86 1042.33L1119.35 1039.35L1119.35 579.63L1118.6 576.654L1116.37 573.679L1113.39 572.191L932.754 572.191L932.754 545.505L907.934 545.505L907.934 509.705L907.19 506.729L904.957 503.753L901.979 502.266L592.302 502.266L589.324 503.01L586.346 505.241L584.858 508.217L584.858 559.495L567.054 559.495L567.054 659.424L617.054 659.424L617.054 559.495L599.746 559.495L599.746 517.143L703.22 517.143L703.22 651.787L703.964 654.762L706.198 657.738L709.175 659.225L801.483 659.225L801.483 694.399L801.354 694.399L801.354 749.559L817.154 749.559L817.154 694.399L816.371 694.399L816.371 651.787L815.627 648.811L813.393 645.836L810.416 644.348L718.108 644.348L718.108 517.143L893.046 517.143L893.046 545.505L868.754 545.505L868.754 613.457L932.754 613.457L932.754 587.069L1104.46 587.069L1104.46 1030.42L1076.05 1030.42L1076.05 1005.88L1008.05 1005.88L1008.05 1069.83L1034.49 1069.83L1034.49 1171.76L791.805 1171.76L788.828 1172.51L785.85 1174.74L784.361 1177.71L784.361 1381.54L419.597 1381.54L419.597 991.187L446.054 991.187L446.054 927.232L419.597 927.232L419.597 922.561L557.054 922.561L557.054 922.835L612.254 922.835L612.254 907.047L557.054 907.047L557.054 907.683L412.153 907.683L409.175 908.427L406.197 910.659L404.709 913.634L404.709 927.232L378.054 927.232L378.054 991.187L404.709 991.187L404.709 1388.98L405.453 1391.95L407.686 1394.93L410.664 1396.42L791.805 1396.42L794.783 1395.67L797.761 1393.44L799.25 1390.46L799.25 1186.64L1034.49 1186.64L1034.49 1195.26L1034.25 1195.34L1032.75 1195.84L1031.85 1196.14L1031.05 1196.54L1030.25 1196.94L1029.55 1197.44L1028.75 1197.84L1028.05 1198.24L1026.65 1199.34L1025.95 1199.94L1025.25 1200.44L1023.45 1202.24L1022.95 1202.94L1022.35 1203.63L1021.25 1205.03L1020.85 1205.73L1020.45 1206.53L1019.95 1207.23L1019.55 1208.03L1019.15 1208.83L1018.85 1209.73L1018.35 1211.23L1017.75 1213.03L1017.65 1213.83L1017.25 1215.53L1017.05 1217.33L1017.05 1318.95L1067.05 1318.95L1067.05 1276.65L1152.1 1276.65L1155.08 1275.91L1158.06 1273.67L1159.55 1270.7L1159.55 299.929L1158.8 296.953Z" fill="#FF8C00" fill-opacity="0.8"/>
<path d="M729.274 321.666L729.274 290.259L728.53 287.283L726.296 284.308L723.319 282.82L721.83 282.82L412.152 282.076L409.175 282.82L406.197 285.052L404.708 288.027L404.708 645.434L398.053 645.434L398.053 680.409L426.053 680.409L426.053 645.434L419.597 645.434L419.597 296.954L714.386 297.698L714.386 321.666L695.053 321.666L695.053 393.614L749.053 393.614L749.053 321.666L729.274 321.666Z" fill="#FF8C00" fill-opacity="0.8"/>
<path d="M557.053 844.192L557.053 844.453L499.249 844.453L499.249 683.308L499.853 683.107L501.353 682.607L502.253 682.308L503.053 681.908L503.853 681.508L504.553 681.008L505.353 680.609L506.053 680.209L507.453 679.11L508.153 678.51L508.853 678.011L510.653 676.212L511.153 675.512L511.753 674.813L512.853 673.414L513.253 672.714L513.653 671.915L514.153 671.216L514.553 670.416L514.953 669.617L515.253 668.717L515.753 667.218L516.353 665.42L516.453 664.62L516.853 662.921L517.053 661.123L517.053 559.495L467.053 559.495L467.053 661.123L467.253 662.921L467.653 664.62L467.753 665.42L468.353 667.218L468.853 668.717L469.153 669.617L469.553 670.416L469.953 671.216L470.453 671.915L470.853 672.714L471.253 673.414L472.353 674.813L472.953 675.512L473.453 676.212L475.253 678.011L475.953 678.51L476.653 679.11L478.053 680.209L478.753 680.609L479.553 681.008L480.253 681.508L481.053 681.908L481.853 682.308L482.753 682.607L484.253 683.107L484.361 683.143L484.361 851.892L485.105 854.867L487.339 857.843L490.316 859.331L557.053 859.331L557.053 859.981L612.253 859.981L612.253 844.192L557.053 844.192Z" fill="#FF8C00" fill-opacity="0.8"/>
<path d="M617.053 1219.02L617.053 1318.95L634.733 1318.95L634.733 1351.78L491.805 1351.78L491.805 953.804L557.053 953.804L557.053 954.313L612.253 954.313L612.253 938.524L557.053 938.524L557.053 938.926L484.361 938.926L481.383 939.67L478.406 941.902L476.917 944.878L476.917 1359.22L477.661 1362.2L479.894 1365.17L482.872 1366.66L642.177 1366.66L645.155 1365.92L648.133 1363.68L649.621 1360.71L649.621 1318.95L667.053 1318.95L667.053 1219.02L617.053 1219.02Z" fill="#FF8C00" fill-opacity="0.8"/>
<path d="M749.373 1219.02L749.373 1179.2L748.629 1176.23L746.396 1173.25L743.418 1171.76L522.326 1171.76L522.326 985.047L557.053 985.047L557.053 985.791L612.253 985.791L612.253 970.002L557.053 970.002L557.053 970.17L514.882 970.17L511.904 970.913L508.927 973.145L507.438 976.121L507.438 1179.2L508.182 1182.18L510.415 1185.15L513.393 1186.64L734.485 1186.64L734.485 1219.02L717.053 1219.02L717.053 1318.95L767.053 1318.95L767.053 1219.02L749.373 1219.02Z" fill="#FF8C00" fill-opacity="0.8"/>
<path d="M517.053 1219.02L517.053 1318.95L567.053 1318.95L567.053 1219.02L517.053 1219.02Z" fill="#FF8C00" fill-opacity="0.8"/>
<path d="M557.053 812.714L557.053 828.503L612.253 828.503L612.253 812.714L557.053 812.714Z" fill="#FF8C00" fill-opacity="0.8"/>
<path d="M557.053 781.237L557.053 797.026L612.253 797.026L612.253 781.237L557.053 781.237Z" fill="#FF8C00" fill-opacity="0.8"/>
<path d="M557.053 1001.48L557.053 1017.27L612.253 1017.27L612.253 1001.48L557.053 1001.48Z" fill="#FF8C00" fill-opacity="0.8"/>
<path d="M643.953 694.399L643.953 749.56L659.753 749.56L659.753 694.399L643.953 694.399Z" fill="#FF8C00" fill-opacity="0.8"/>
<path d="M643.953 1048.95L643.953 1104.61L644.053 1105.21L644.153 1105.41L644.153 1105.71L644.253 1106L644.253 1106.2L644.453 1106.8L644.553 1107L644.753 1107.5L645.153 1108.2L645.353 1108.5L645.653 1108.9L645.853 1109.1L645.953 1109.3L646.553 1109.9L646.753 1110.1L647.053 1110.3L647.253 1110.4L647.453 1110.6L647.653 1110.7L647.953 1110.9L648.153 1111L648.353 1111.1L648.653 1111.3L648.953 1111.4L649.453 1111.5L649.953 1111.7L650.253 1111.8L650.753 1111.9L652.953 1111.9L653.453 1111.8L653.753 1111.7L654.253 1111.5L654.753 1111.4L655.053 1111.3L655.353 1111.1L655.753 1110.9L656.053 1110.7L656.253 1110.6L656.453 1110.4L656.653 1110.3L656.953 1110.1L657.153 1109.9L657.753 1109.3L657.853 1109.1L658.053 1108.9L658.353 1108.5L658.553 1108.2L658.953 1107.5L659.153 1107L659.253 1106.8L659.453 1106.2L659.453 1106L659.553 1105.71L659.553 1105.41L659.653 1105.21L659.753 1104.61L659.753 1048.95L643.953 1048.95Z" fill="#FF8C00" fill-opacity="0.8"/>
<path d="M675.453 1048.95L675.453 1104.11L691.253 1104.11L691.253 1048.95L675.453 1048.95Z" fill="#FF8C00" fill-opacity="0.8"/>
<path d="M675.453 694.399L675.453 749.56L691.253 749.56L691.253 694.399L675.453 694.399Z" fill="#FF8C00" fill-opacity="0.8"/>
<path d="M777.053 429.588L777.053 453.104L729.274 453.913L729.274 437.583L749.053 437.583L749.053 415.598L695.053 415.598L695.053 437.583L714.386 437.583L714.386 461.352L715.13 464.328L717.363 467.303L720.341 468.791L721.83 468.791L777.053 467.929L777.053 489.545L857.053 489.545L857.053 429.588L777.053 429.588Z" fill="#FF8C00" fill-opacity="0.8"/>
<path d="M706.953 694.399L706.953 749.56L722.753 749.56L722.753 694.399L706.953 694.399Z" fill="#FF8C00" fill-opacity="0.8"/>
<path d="M706.953 1048.95L706.953 1104.11L722.753 1104.11L722.753 1048.95L706.953 1048.95Z" fill="#FF8C00" fill-opacity="0.8"/>
<path d="M738.453 1048.95L738.453 1104.11L754.253 1104.11L754.253 1048.95L738.453 1048.95Z" fill="#FF8C00" fill-opacity="0.8"/>
<path d="M738.453 694.399L738.453 749.56L754.253 749.56L754.253 694.399L738.453 694.399Z" fill="#FF8C00" fill-opacity="0.8"/>
<path d="M769.853 694.399L769.853 749.56L785.653 749.56L785.653 694.399L769.853 694.399Z" fill="#FF8C00" fill-opacity="0.8"/>
<path d="M769.853 1048.95L769.853 1104.11L785.653 1104.11L785.653 1048.95L769.853 1048.95Z" fill="#FF8C00" fill-opacity="0.8"/>
<path d="M777.053 269.703L777.053 329.66L857.053 329.66L857.053 269.703L777.053 269.703Z" fill="#FF8C00" fill-opacity="0.8"/>
<path d="M801.353 1048.95L801.353 1104.11L817.153 1104.11L817.153 1048.95L801.353 1048.95Z" fill="#FF8C00" fill-opacity="0.8"/>
<path d="M832.853 1048.95L832.853 1104.11L848.653 1104.11L848.653 1048.95L832.853 1048.95Z" fill="#FF8C00" fill-opacity="0.8"/>
<path d="M864.353 694.399L864.353 749.56L880.153 749.56L880.153 694.399L864.353 694.399Z" fill="#FF8C00" fill-opacity="0.8"/>
<path d="M864.353 1048.95L864.353 1104.11L880.153 1104.11L880.153 1048.95L864.353 1048.95Z" fill="#FF8C00" fill-opacity="0.8"/>
<path d="M911.853 812.714L911.853 828.503L967.053 828.503L967.053 812.714L911.853 812.714Z" fill="#FF8C00" fill-opacity="0.8"/>
<path d="M911.853 875.669L911.853 891.458L967.053 891.458L967.053 875.669L911.853 875.669Z" fill="#FF8C00" fill-opacity="0.8"/>
<path d="M911.853 938.524L911.853 954.313L967.053 954.313L967.053 938.524L911.853 938.524Z" fill="#FF8C00" fill-opacity="0.8"/>
<path d="M911.853 1001.48L911.853 1017.27L967.053 1017.27L967.053 1001.48L911.853 1001.48Z" fill="#FF8C00" fill-opacity="0.8"/>
<path d="M911.853 907.047L911.853 922.836L967.053 922.836L967.053 907.047L911.853 907.047Z" fill="#FF8C00" fill-opacity="0.8"/>
<path d="M911.853 844.192L911.853 859.981L967.053 859.981L967.053 844.192L911.853 844.192Z" fill="#FF8C00" fill-opacity="0.8"/>
<path d="M911.853 781.237L911.853 797.026L967.053 797.026L967.053 781.237L911.853 781.237Z" fill="#FF8C00" fill-opacity="0.8"/>
<path d="M917.053 1219.02L917.053 1318.95L967.053 1318.95L967.053 1219.02L917.053 1219.02Z" fill="#FF8C00" fill-opacity="0.8"/>
<path d="M1027.05 429.588L1027.05 489.545L1107.05 489.545L1107.05 429.588L1027.05 429.588Z" fill="#FF8C00" fill-opacity="0.8"/>
</g>
</g>
<defs>
<clipPath id="clip0_4_33">
<rect width="1523" height="1548" fill="white"/>
</clipPath>
<clipPath id="clip1_4_33">
<rect width="1593.87" height="1445" fill="white" transform="translate(-35 52.2325) rotate(-0.0783319)"/>
</clipPath>
<clipPath id="clip2_4_33">
<rect width="1399" height="990" fill="white" transform="translate(269.05 1569.79) rotate(-90)"/>
</clipPath>
</defs>
</svg>
