<svg width="1523" height="1548" viewBox="0 0 1523 1548" fill="none" xmlns="http://www.w3.org/2000/svg">
<g clip-path="url(#clip0_4_16)">
<rect width="1523" height="1548" fill="white"/>
<rect y="-257" width="1770" height="2005" fill="black"/>
<g clip-path="url(#clip1_4_16)">
<path d="M1160.38 1030.44C1302.05 1030.25 1417.05 1134.22 1417.23 1262.67C1417.35 1301.5 1406.69 1339.75 1386.23 1373.87L1413.28 1373.83C1450.26 1373.78 1480.28 1400.92 1480.32 1434.45L1480.37 1467.76C1480.38 1475.03 1477.2 1482 1471.54 1487.15C1465.88 1492.29 1458.19 1495.19 1450.18 1495.2L1161.01 1495.6C1019.33 1495.79 904.329 1391.82 904.153 1263.37C903.977 1134.93 1018.69 1030.64 1160.38 1030.44ZM366.167 1031.53C224.488 1031.72 109.771 1136.01 109.947 1264.45C109.937 1303.29 120.704 1341.5 141.259 1375.57L114.208 1375.61C77.2278 1375.66 47.2835 1402.88 47.3293 1436.41L47.3748 1469.72C47.3848 1476.98 50.579 1483.95 56.2547 1489.08C61.9305 1494.21 69.6229 1497.09 77.6397 1497.08L366.803 1496.68C508.487 1496.49 623.204 1392.2 623.028 1263.75C622.858 1135.31 507.856 1031.34 366.167 1031.53V1031.53Z" fill="white"/>
<path d="M499.363 1496.5L1028.46 1495.78C1146.03 1495.62 1242.12 1408.27 1241.97 1301.67L1241.42 899.875C1241.1 660.372 1026.67 466.514 762.496 466.875C498.319 467.236 284.432 661.68 284.759 901.183L285.308 1302.98C285.459 1409.58 381.783 1496.66 499.363 1496.5V1496.5Z" fill="white"/>
<path d="M284.923 1017.71L285.278 1276.78C349.129 1262.05 396.325 1209.55 396.24 1147.09C396.154 1084.63 348.815 1032.26 284.923 1017.71Z" fill="white"/>
<path d="M1045.81 89.7873L478.151 90.5634C352.001 90.7358 248.91 184.45 249.066 298.823L249.364 516.533C249.715 773.49 479.769 981.48 763.199 981.093C1046.62 980.705 1276.11 772.087 1275.76 515.129L1275.46 297.415C1275.31 183.047 1171.97 89.6148 1045.81 89.7873V89.7873Z" fill="white"/>
<path d="M958.346 494.588L566.733 495.123C506.411 495.205 457.575 539.602 457.65 594.289L457.921 792.333C457.996 847.02 506.953 891.288 567.274 891.205C627.596 891.123 676.432 846.722 676.357 792.034L676.222 693.017L849.394 692.78L849.529 791.798C849.604 846.485 898.561 890.753 958.883 890.67C1019.2 890.588 1068.04 846.186 1067.97 791.499L1067.69 593.455C1067.63 538.768 1018.67 494.505 958.346 494.588V494.588Z" fill="white"/>
<path d="M641.102 663.483C624.277 663.506 617.372 652.707 625.771 639.481L655.33 592.918C663.73 579.692 677.496 579.674 685.932 592.876L715.618 639.358C724.049 652.561 717.178 663.379 700.353 663.402L641.102 663.483ZM884.438 663.15C901.263 663.127 908.139 652.309 899.698 639.106L870.017 592.625C861.586 579.422 847.815 579.441 839.415 592.667L809.856 639.229C801.456 652.455 808.362 663.254 825.187 663.231L884.438 663.15Z" fill="white"/>
<path d="M813.795 545.06C787.895 569.485 744.686 570.232 717.787 546.747L687.765 520.555C660.851 497.061 669.411 477.802 706.775 477.75L817.54 477.599C854.904 477.548 864.277 497.489 838.371 521.896L813.795 545.06V545.06Z" fill="white"/>
<path d="M1258.19 289.812C1189.44 291.049 1132.14 241.028 1130.85 178.711L1129.39 109.19C1128.09 46.8545 1166.89 31.8731 1215.58 75.8948L1359.93 206.397C1408.62 250.418 1392.18 287.436 1323.43 288.641L1258.19 289.812V289.812ZM266.332 291.168C335.088 292.217 392.251 242.04 393.365 179.719L394.638 110.195C395.767 47.8557 356.927 32.9804 308.363 77.1351L164.372 208.031C115.802 252.186 132.339 289.159 201.09 290.175L266.332 291.168Z" fill="white"/>
<path d="M905.656 331.275C905.697 361.038 918.777 389.564 942.02 410.579C965.262 431.593 996.763 443.373 1029.59 443.328C1062.42 443.283 1093.89 431.417 1117.08 410.339C1140.26 389.262 1153.26 360.7 1153.22 330.937C1153.18 301.173 1140.1 272.647 1116.86 251.633C1093.62 230.619 1062.12 218.839 1029.29 218.884C996.457 218.928 964.988 230.795 941.803 251.872C918.618 272.95 905.615 301.512 905.656 331.275V331.275Z" fill="white"/>
<path d="M984.257 331.168C984.272 342.031 989.046 352.444 997.53 360.114C1006.01 367.784 1017.51 372.084 1029.5 372.068C1041.48 372.052 1052.96 367.72 1061.43 360.027C1069.89 352.333 1074.64 341.908 1074.62 331.044C1074.61 320.18 1069.83 309.768 1061.35 302.097C1052.86 294.427 1041.37 290.127 1029.38 290.144C1017.4 290.16 1005.91 294.491 997.451 302.185C988.988 309.878 984.242 320.304 984.257 331.168Z" fill="white"/>
<path d="M450.011 331.898C450.026 342.762 454.801 353.174 463.284 360.844C471.768 368.515 483.266 372.815 495.249 372.798C507.233 372.782 518.719 368.451 527.182 360.757C535.645 353.064 540.391 342.638 540.376 331.774C540.361 320.911 535.586 310.498 527.103 302.828C518.619 295.158 507.121 290.858 495.137 290.874C483.154 290.89 471.668 295.222 463.205 302.915C454.742 310.609 449.996 321.034 450.011 331.898Z" fill="white"/>
<path d="M633.072 1055.2C632.995 999.023 582.699 953.554 520.743 953.639C458.782 953.724 408.616 999.334 408.692 1055.5L409.13 1375.2L316.127 1375.33C279.142 1375.38 249.208 1402.6 249.253 1436.13L249.299 1469.44C249.32 1484.57 262.862 1496.82 279.559 1496.8L566.719 1496.41C603.699 1496.36 633.638 1469.13 633.592 1435.6L633.072 1055.2V1055.2ZM893.539 1054.84C893.463 998.667 943.634 953.061 1005.59 952.976C1067.55 952.891 1117.84 998.365 1117.92 1054.53L1118.36 1374.23L1211.35 1374.11C1248.34 1374.06 1278.35 1401.2 1278.39 1434.72L1278.44 1468.03C1278.46 1483.17 1264.95 1495.45 1248.25 1495.47L961.094 1495.87C924.114 1495.92 894.1 1468.77 894.054 1435.25L893.534 1054.84L893.539 1054.84V1054.84Z" fill="white"/>
</g>
</g>
<defs>
<clipPath id="clip0_4_16">
<rect width="1523" height="1548" fill="white"/>
</clipPath>
<clipPath id="clip1_4_16">
<rect width="1593.87" height="1445" fill="white" transform="translate(-35 52.2325) rotate(-0.0783319)"/>
</clipPath>
</defs>
</svg>
